<svg width="80" height="80" viewBox="0 0 80 80" fill="none" xmlns="http://www.w3.org/2000/svg">
  <defs>
    <linearGradient id="plantGradient" x1="0%" y1="0%" x2="100%" y2="100%">
      <stop offset="0%" style="stop-color:#4CAF50;stop-opacity:1" />
      <stop offset="50%" style="stop-color:#66BB6A;stop-opacity:1" />
      <stop offset="100%" style="stop-color:#81C784;stop-opacity:1" />
    </linearGradient>
    <linearGradient id="stemGradient" x1="0%" y1="0%" x2="0%" y2="100%">
      <stop offset="0%" style="stop-color:#388E3C;stop-opacity:1" />
      <stop offset="100%" style="stop-color:#2E7D32;stop-opacity:1" />
    </linearGradient>
  </defs>
  
  <!-- Plant leaves/sprout -->
  <path d="M46.75 11.7042C49.3296 11.1336 52.1364 11.8521 54.1421 13.8579C56.1479 15.8636 56.8664 18.6704 56.2958 21.25C58.5234 22.6707 60 25.1634 60 28C60 30.8366 58.5234 33.3293 56.2958 34.75C56.8664 37.3296 56.1479 40.1364 54.1421 42.1421C52.1364 44.1479 49.3296 44.8664 46.75 44.2958C45.3293 46.5234 42.8366 48 40 48C37.1634 48 34.6707 46.5234 33.25 44.2958C30.6704 44.8664 27.8636 44.1479 25.8579 42.1421C23.8521 40.1364 23.1336 37.3296 23.7042 34.75C21.4766 33.3293 20 30.8366 20 28C20 25.1634 21.4766 22.6707 23.7042 21.25C23.1336 18.6704 23.8521 15.8636 25.8579 13.8579C27.8636 11.8521 30.6704 11.1336 33.25 11.7042C34.6707 9.47659 37.1634 8 40 8C42.8366 8 45.3293 9.47659 46.75 11.7042Z" 
        stroke="url(#plantGradient)" 
        stroke-width="2"
        stroke-linecap="round" 
        stroke-linejoin="round" />
  
  <!-- Plant stem -->
  <path d="M40 24L40 72" 
        stroke="url(#stemGradient)" 
        stroke-width="3"
        stroke-linecap="round" 
        stroke-linejoin="round" />
  
  <!-- Plant leaves at bottom -->
  <path d="M49 28L40 36L31 28" 
        stroke="url(#plantGradient)" 
        stroke-width="2"
        stroke-linecap="round" 
        stroke-linejoin="round" />
</svg> 